<svg width="99" height="71" viewBox="0 0 99 71" fill="none" xmlns="http://www.w3.org/2000/svg">
<path d="M34.2567 55.2065V65.9438H32.639L31.6275 59.461L30.7169 54.4974L34.2567 55.2065Z" fill="#CAB5A1"/>
<path d="M30.7169 54.0923L30.1107 58.752L29.301 66.247L27.6833 66.146V60.3722L26.8745 54.4974L30.7169 54.0923Z" fill="#CAB5A1"/>
<path d="M27.9082 38.5988C27.9082 38.5988 29.4991 37.8786 30.8354 40.2552C32.1717 42.6318 35.9345 49.6142 37.033 53.5156C38.1315 57.4161 34.9332 55.5159 32.0209 56.783C29.1085 58.0501 26.6219 58.7379 26.1721 56.9721C25.7214 55.2054 20.8167 40.4647 27.9082 38.5988Z" fill="#B26650"/>
<path d="M27.3825 33.3943C25.6159 31.0872 22.661 33.1329 22.7905 35.6587C22.8636 37.0954 24.1416 39.3293 25.7935 38.9771C25.9296 39.1921 26.172 39.6 26.4201 39.6639C26.6884 39.7334 27.1974 39.2811 27.4001 39.1115C27.4565 39.0642 27.5139 39.0123 27.5371 38.9428C27.5657 38.8556 27.4973 38.6944 27.4112 38.521C27.5741 38.4246 27.7305 38.3041 27.8776 38.1568C28.494 37.5404 28.6837 36.5838 28.5282 35.7236C28.3718 34.8634 27.9128 34.0876 27.3825 33.3943Z" fill="#EACDB0"/>
<path d="M25.3123 33.0188C25.3123 33.0188 23.1218 33.904 23.2533 34.8504C23.4513 36.2742 23.4892 37.2428 23.7021 38.0761L21.9623 37.3475L20.6482 34.8273C20.6482 34.8273 20.5343 32.6221 21.6162 32.0854C22.698 31.5488 25.0097 30.8397 25.0097 30.8397L26.8856 31.1576L28.196 30.8786L28.2913 34.9199C28.2913 34.9209 27.3131 32.1605 25.3123 33.0188Z" fill="#5C3C30"/>
<path d="M34.2568 65.9438L35.1665 66.855L34.7621 67.463L32.9417 66.855V65.9438H34.2568Z" fill="#8C9498"/>
<path d="M29.0318 66.2302L28.6949 67.564L27.5816 67.9691L26.9755 67.665L27.9176 66.1606L29.0318 66.2302Z" fill="#8C9498"/>
<path d="M6.77518 64.8456C8.94532 69.5923 14.472 71.854 19.3731 69.9084C22.6269 68.6163 24.8128 65.7827 25.4264 62.5765L35.2785 58.664C37.9188 60.578 41.4493 61.1416 44.7031 59.8495C49.6042 57.903 52.0816 52.462 50.4149 47.516L50.4316 47.5141L44.0026 31.2718L43.9832 31.2755C42.6959 28.6347 39.5744 27.3917 36.8009 28.4929C34.6076 29.3642 33.2583 31.4525 33.2204 33.6771L32.7077 41.2055L15.3539 48.0971L9.83004 42.9657C8.28086 41.3714 5.86918 40.7763 3.67591 41.6467C0.903309 42.7479 -0.520933 45.7956 0.348974 48.6023L0.332316 48.6134L6.7613 64.8558L6.77518 64.8456Z" fill="#2E4661"/>
<path d="M6.77518 64.8241C6.77518 64.8241 -0.209988 45.6461 8.73895 42.0914C7.26844 41.1858 5.40462 40.9606 3.67591 41.6474C0.903309 42.7486 -0.520933 45.7963 0.348974 48.603L0.332316 48.6141L6.76037 64.8519L6.77518 64.8241Z" fill="#283D54"/>
<path d="M35.6043 52.0715L38.053 51.0992C38.3343 50.9871 38.6536 51.1252 38.7656 51.4079L39.7363 53.8605C39.8483 54.1423 40.1667 54.2804 40.4489 54.1692L42.8976 53.1968C43.179 53.0847 43.3168 52.7658 43.2058 52.4831L42.235 50.0305C42.123 49.7487 42.2609 49.4289 42.5432 49.3168L44.941 48.3648C45.2223 48.2527 45.3602 47.9338 45.2491 47.6511L44.2784 45.1985C44.1664 44.9167 43.848 44.7786 43.5658 44.8898L41.168 45.8417C40.8867 45.9539 40.5674 45.8158 40.4554 45.5331L39.505 43.1314C39.393 42.8497 39.0747 42.7116 38.7924 42.8228L36.3437 43.7951C36.0624 43.9073 35.9245 44.2261 36.0355 44.5088L36.986 46.9105C37.0979 47.1923 36.96 47.512 36.6778 47.6242L34.2291 48.5965C33.9478 48.7087 33.8099 49.0276 33.9209 49.3103L34.8917 51.7629C35.0028 52.0456 35.322 52.1837 35.6043 52.0715Z" fill="#283D54"/>
<path d="M15.4632 63.9518C16.4737 63.9518 17.2928 63.1313 17.2928 62.1192C17.2928 61.1072 16.4737 60.2867 15.4632 60.2867C14.4528 60.2867 13.6337 61.1072 13.6337 62.1192C13.6337 63.1313 14.4528 63.9518 15.4632 63.9518Z" fill="#283D54"/>
<path d="M17.4861 59.1199C18.4966 59.1199 19.3157 58.2994 19.3157 57.2873C19.3157 56.2753 18.4966 55.4548 17.4861 55.4548C16.4757 55.4548 15.6566 56.2753 15.6566 57.2873C15.6566 58.2994 16.4757 59.1199 17.4861 59.1199Z" fill="#283D54"/>
<path d="M10.8294 61.7635C11.8398 61.7635 12.659 60.943 12.659 59.931C12.659 58.9189 11.8398 58.0984 10.8294 58.0984C9.81895 58.0984 8.99982 58.9189 8.99982 59.931C8.99982 60.943 9.81895 61.7635 10.8294 61.7635Z" fill="#283D54"/>
<path d="M12.746 57.089C13.7564 57.089 14.5755 56.2685 14.5755 55.2565C14.5755 54.2444 13.7564 53.424 12.746 53.424C11.7355 53.424 10.9164 54.2444 10.9164 55.2565C10.9164 56.2685 11.7355 57.089 12.746 57.089Z" fill="#283D54"/>
<path d="M36.3151 52.3791L38.7638 51.4068C39.0451 51.2946 39.3644 51.4327 39.4764 51.7154L40.4472 54.1681C40.5592 54.4498 40.8775 54.5879 41.1598 54.4767L43.6085 53.5044C43.8898 53.3922 44.0277 53.0734 43.9166 52.7907L42.9458 50.338C42.8339 50.0563 42.9718 49.7365 43.254 49.6243L45.6518 48.6724C45.9331 48.5602 46.071 48.2414 45.96 47.9586L44.9892 45.506C44.8772 45.2242 44.5589 45.0861 44.2766 45.1974L41.8788 46.1493C41.5975 46.2615 41.2782 46.1233 41.1662 45.8406L40.2158 43.439C40.1038 43.1572 39.7855 43.0191 39.5032 43.1303L37.0545 44.1027C36.7732 44.2148 36.6353 44.5337 36.7464 44.8164L37.6968 47.218C37.8088 47.4998 37.6709 47.8196 37.3886 47.9318L34.9399 48.9041C34.6586 49.0163 34.5207 49.3351 34.6318 49.6178L35.6025 52.0704C35.7145 52.3532 36.0338 52.4913 36.3151 52.3791Z" fill="#FFDB8C"/>
<path d="M16.1741 64.2594C17.1845 64.2594 18.0037 63.4389 18.0037 62.4269C18.0037 61.4148 17.1845 60.5944 16.1741 60.5944C15.1636 60.5944 14.3445 61.4148 14.3445 62.4269C14.3445 63.4389 15.1636 64.2594 16.1741 64.2594Z" fill="#FFDB8C"/>
<path d="M18.1978 59.4274C19.2083 59.4274 20.0274 58.6069 20.0274 57.5948C20.0274 56.5828 19.2083 55.7623 18.1978 55.7623C17.1874 55.7623 16.3682 56.5828 16.3682 57.5948C16.3682 58.6069 17.1874 59.4274 18.1978 59.4274Z" fill="#FFDB8C"/>
<path d="M11.5402 62.0719C12.5507 62.0719 13.3698 61.2514 13.3698 60.2394C13.3698 59.2273 12.5507 58.4069 11.5402 58.4069C10.5298 58.4069 9.71065 59.2273 9.71065 60.2394C9.71065 61.2514 10.5298 62.0719 11.5402 62.0719Z" fill="#FFDB8C"/>
<path d="M13.4577 57.3965C14.4681 57.3965 15.2873 56.576 15.2873 55.564C15.2873 54.5519 14.4681 53.7314 13.4577 53.7314C12.4472 53.7314 11.6281 54.5519 11.6281 55.564C11.6281 56.576 12.4472 57.3965 13.4577 57.3965Z" fill="#FFDB8C"/>
<path d="M42.5282 57.9157C41.0957 58.4848 39.6066 58.6758 38.1704 58.5358C40.0703 59.3255 42.2673 59.4052 44.33 58.5859C48.5371 56.9146 50.5952 52.1447 48.9276 47.9309C48.6712 47.284 48.3418 46.6889 47.954 46.1494C49.5606 50.8637 47.2017 56.0591 42.5282 57.9157Z" fill="#385575"/>
<path d="M41.8648 28.9366C40.3943 28.0301 38.5295 27.8058 36.8008 28.4926C34.6075 29.3639 33.2582 31.4522 33.2203 33.6768L32.7233 40.98C32.7233 40.98 33.4896 32.2624 41.8648 28.9366Z" fill="#283D54"/>
<path d="M17.4095 50.021L24.9555 47.0447L32.5024 44.0684L32.7079 41.1903L24.0171 44.657L15.2996 48.0569L17.4095 50.021Z" fill="#283D54"/>
<path d="M25.6826 39.9586C25.6826 39.9586 17.6471 45.3671 25.6984 50.6505C27.6418 51.7628 27.6418 51.7628 27.6418 51.7628L28.5672 50.8359L24.4953 45.2744L26.0686 42.2777L25.6826 39.9586Z" fill="#B26650"/>
<path d="M28.5793 38.4987C28.5793 38.4987 33.4563 37.151 33.2786 44.8277C33.2869 47.7772 33.2869 49.3529 33.2869 49.3529H31.8988L30.3256 42.3389L28.5793 38.4987Z" fill="#B26650"/>
<path d="M31.9757 49.353L31.8064 50.558L32.2691 51.1141H32.8243L32.9012 49.353H31.9757Z" fill="#EACDB0"/>
<path d="M28.4213 50.9823L29.3078 51.392L29.4004 52.4116L28.9377 52.5043L27.9891 51.4152L28.4213 50.9823Z" fill="#EACDB0"/>
<path d="M79.0035 10.1444L67.5281 11.9982L57.4409 8.5686L55.6826 10.8859L67.0117 16.4919L75.9496 15.9839L79.0035 10.1444Z" fill="#A1BDCC"/>
<path d="M85.5812 13.0568L91.1264 22.5651L97.9626 28.8876L96.1237 31.3708L88.0762 26.0568L81.9202 17.8193L85.5812 13.0568Z" fill="#A1BDCC"/>
<path d="M70.7926 31.3014L70.4437 46.2247L73.0238 65.5009L75.1829 65.5268L76.757 47.7875L79.922 30.0658L70.7926 31.3014Z" fill="#8C9498"/>
<path d="M75.1737 65.2692L75.1598 66.439L72.8111 67.58L71.6571 66.3973L72.8389 65.2414L75.1737 65.2692Z" fill="#3A3029"/>
<path d="M82.5207 65.8326L80.6643 67.413L81.1279 68.3427L84.5631 67.5993V65.8326H82.5207Z" fill="#3A3029"/>
<path d="M78.2802 37.1724L79.8229 51.636L81.8589 66.0541L84.7629 65.916L84.6574 50.9593L86.4055 37.0861L82.3003 35.1711L78.2802 37.1724Z" fill="#8C9498"/>
<path d="M78.8763 10.1686C78.8763 10.1686 74.9969 12.0243 71.6765 19.3386C68.2949 26.7864 67.2029 37.1113 67.2029 37.1113C67.2029 37.1113 86.9285 43.3596 86.9803 39.931C86.9803 39.931 91.4409 12.8011 82.5697 10.8796C82.1653 10.7915 79.1197 10.0296 78.8763 10.1686Z" fill="#A1BDCC"/>
<path d="M79.9221 10.2494C77.8797 13.7587 75.9529 17.9131 73.8716 21.3983C72.638 23.4644 72.3086 25.7558 71.8505 28.0749C71.3952 30.3811 70.9399 32.6873 70.4836 34.9934C70.2912 35.9676 70.0987 36.9418 69.9062 37.9169L78.2267 39.9849C78.1323 37.1012 77.9676 34.2185 77.9269 31.334C77.8889 28.6728 77.6826 25.6622 78.5266 23.1029C78.9375 21.8572 79.3669 20.6151 79.7842 19.3702C80.5496 17.0863 81.0798 14.7143 81.8655 12.4369C81.9201 12.2775 81.9331 10.8797 81.9044 10.7082L79.9221 10.2494Z" fill="white"/>
<path d="M79.9435 11.2568C80.6126 11.1873 81.2826 11.1168 81.9517 11.0464C81.9554 10.5088 81.9165 9.97115 81.8341 9.44002C82.3913 9.24074 83.0344 8.94227 83.1288 8.35739C83.1584 8.17293 83.126 7.98477 83.0927 7.80124C82.9576 7.04117 82.8225 6.28202 82.6874 5.52195C82.6411 5.25963 82.5911 4.98897 82.4468 4.76373C82.1941 4.36979 81.7074 4.19924 81.2456 4.12138C80.0684 3.92302 78.7895 4.18441 77.8816 4.96116C77.6401 5.16787 77.4217 5.41535 77.3162 5.71568C77.1533 6.17821 77.2801 6.68708 77.4069 7.16074C77.5235 7.59824 77.641 8.03482 77.7576 8.47232C77.8927 8.97564 78.0862 9.54662 78.5711 9.73293C78.8293 9.83211 79.1319 9.8006 79.366 9.94798C79.7797 10.2084 79.7279 10.8202 79.9435 11.2568Z" fill="#EACDB0"/>
<path d="M76.1957 6.26147L77.8282 8.57971L77.2452 6.31987L76.1957 6.26147Z" fill="#3A3029"/>
<path d="M73.3509 3.69866C73.3342 3.17773 73.4045 2.64939 73.5054 2.17296C73.6785 1.35449 74.6391 0.980943 75.471 0.917913C77.2691 0.780729 79.0006 -0.0470079 80.7617 0.572172C81.7686 0.926254 83.1179 1.00412 84.0304 1.50558C84.4116 1.71506 84.7161 2.04504 84.9539 2.40839C85.7794 3.66993 85.7924 5.41624 84.9873 6.69075C84.8068 6.97716 84.5903 7.23855 84.3626 7.48789C83.8915 8.00511 83.327 8.64469 82.6764 8.83841C82.6579 8.25445 83.1799 6.40896 82.7292 5.93253C82.0138 5.17616 80.4082 5.44961 79.5272 5.64148C78.5666 5.85096 77.7124 6.5378 76.7592 6.68796C76.0735 6.79641 75.1953 6.46365 74.6104 6.11142C73.6914 5.55991 73.3805 4.64041 73.3509 3.69866Z" fill="#3A3029"/>
<path d="M97.1584 30.6886C99.2221 25.8946 97.1945 20.27 92.4683 17.9305C89.3302 16.377 85.7654 16.6514 82.9789 18.343L73.4775 13.6398C73.1268 10.3947 71.1788 7.39238 68.0397 5.83887C63.3135 3.49934 57.6202 5.30404 55.0725 9.85706L55.0596 9.84593L47.3313 25.5099L47.347 25.5219C46.2522 28.248 47.4238 31.4023 50.0983 32.7259C52.2139 33.7733 54.6653 33.3757 56.3394 31.914L62.2622 27.2497L78.9986 35.5336L78.8978 43.0787C78.7543 45.2986 79.9296 47.4908 82.0442 48.5373C84.7187 49.8609 87.9309 48.8774 89.4283 46.3497L89.4477 46.3544L97.176 30.6904L97.1584 30.6886Z" fill="#2E4661"/>
<path d="M97.1427 30.7025C97.1427 30.7025 87.6117 48.7477 78.9802 44.4764C79.2939 46.1773 80.3766 47.7132 82.0433 48.5382C84.7178 49.8618 87.93 48.8784 89.4274 46.3507L89.4468 46.3553L97.1732 30.6951L97.1427 30.7025Z" fill="#283D54"/>
<path d="M68.3727 17.8166L66.0119 16.6478C65.7399 16.5134 65.6288 16.1834 65.763 15.9118L66.93 13.5463C67.0642 13.2738 66.9531 12.9447 66.681 12.8103L64.3193 11.6415C64.0473 11.5071 63.7187 11.6183 63.5845 11.8908L62.4176 14.2563C62.2834 14.5288 61.9539 14.6401 61.6828 14.5057L59.3711 13.3609C59.099 13.2265 58.7705 13.3378 58.6363 13.6103L57.4684 15.9748C57.3342 16.2473 57.4452 16.5764 57.7173 16.7108L60.029 17.8555C60.3011 17.9899 60.4122 18.3199 60.278 18.5915L59.1351 20.907C59.0009 21.1795 59.1119 21.5085 59.384 21.6429L61.7457 22.8118C62.0178 22.9462 62.3463 22.8349 62.4805 22.5624L63.6234 20.247C63.7576 19.9745 64.0871 19.8632 64.3582 19.9976L66.7199 21.1665C66.992 21.3009 67.3205 21.1897 67.4547 20.9172L68.6217 18.5517C68.7558 18.2801 68.6448 17.951 68.3727 17.8166Z" fill="#283D54"/>
<path d="M89.3166 27.8891C90.327 27.8891 91.1462 27.0687 91.1462 26.0566C91.1462 25.0446 90.327 24.2241 89.3166 24.2241C88.3061 24.2241 87.487 25.0446 87.487 26.0566C87.487 27.0687 88.3061 27.8891 89.3166 27.8891Z" fill="#283D54"/>
<path d="M84.3801 29.6223C85.3906 29.6223 86.2097 28.8019 86.2097 27.7898C86.2097 26.7777 85.3906 25.9573 84.3801 25.9573C83.3697 25.9573 82.5506 26.7777 82.5506 27.7898C82.5506 28.8019 83.3697 29.6223 84.3801 29.6223Z" fill="#283D54"/>
<path d="M90.7999 32.8C91.8104 32.8 92.6295 31.9796 92.6295 30.9675C92.6295 29.9555 91.8104 29.135 90.7999 29.135C89.7894 29.135 88.9703 29.9555 88.9703 30.9675C88.9703 31.9796 89.7894 32.8 90.7999 32.8Z" fill="#283D54"/>
<path d="M86.0507 34.5073C87.0611 34.5073 87.8803 33.6869 87.8803 32.6748C87.8803 31.6627 87.0611 30.8423 86.0507 30.8423C85.0402 30.8423 84.2211 31.6627 84.2211 32.6748C84.2211 33.6869 85.0402 34.5073 86.0507 34.5073Z" fill="#283D54"/>
<path d="M68.1248 17.0805L65.7631 15.9117C65.4911 15.7773 65.38 15.4473 65.5142 15.1757L66.6812 12.8102C66.8153 12.5377 66.7043 12.2087 66.4322 12.0742L64.0714 10.9054C63.7994 10.771 63.4708 10.8822 63.3367 11.1547L62.1697 13.5202C62.0355 13.7928 61.706 13.904 61.4349 13.7696L59.1232 12.6248C58.8511 12.4904 58.5226 12.6017 58.3884 12.8742L57.2214 15.2397C57.0872 15.5122 57.1983 15.8412 57.4703 15.9756L59.7821 17.1204C60.0541 17.2548 60.1652 17.5848 60.031 17.8564L58.8881 20.1718C58.7539 20.4443 58.865 20.7734 59.137 20.9078L61.4987 22.0766C61.7708 22.211 62.0993 22.0998 62.2335 21.8273L63.3764 19.5118C63.5106 19.2393 63.8401 19.1281 64.1112 19.2625L66.4729 20.4313C66.745 20.5657 67.0735 20.4545 67.2077 20.182L68.3747 17.8165C68.508 17.5449 68.396 17.2159 68.1248 17.0805Z" fill="#FFDB8C"/>
<path d="M89.0674 27.1544C90.0779 27.1544 90.897 26.334 90.897 25.3219C90.897 24.3098 90.0779 23.4894 89.0674 23.4894C88.057 23.4894 87.2378 24.3098 87.2378 25.3219C87.2378 26.334 88.057 27.1544 89.0674 27.1544Z" fill="#FFDB8C"/>
<path d="M84.1311 28.8876C85.1415 28.8876 85.9607 28.0671 85.9607 27.0551C85.9607 26.043 85.1415 25.2225 84.1311 25.2225C83.1206 25.2225 82.3015 26.043 82.3015 27.0551C82.3015 28.0671 83.1206 28.8876 84.1311 28.8876Z" fill="#FFDB8C"/>
<path d="M90.5516 32.0653C91.5621 32.0653 92.3812 31.2449 92.3812 30.2328C92.3812 29.2207 91.5621 28.4003 90.5516 28.4003C89.5412 28.4003 88.722 29.2207 88.722 30.2328C88.722 31.2449 89.5412 32.0653 90.5516 32.0653Z" fill="#FFDB8C"/>
<path d="M85.8025 33.7726C86.8129 33.7726 87.6321 32.9521 87.6321 31.9401C87.6321 30.928 86.8129 30.1075 85.8025 30.1075C84.7921 30.1075 83.9729 30.928 83.9729 31.9401C83.9729 32.9521 84.7921 33.7726 85.8025 33.7726Z" fill="#FFDB8C"/>
<path d="M68.0636 8.75217C69.4453 9.43623 70.5845 10.4151 71.4433 11.5755C70.7557 9.63366 69.3416 7.9476 67.3519 6.96229C63.2949 4.95367 58.3799 6.62026 56.3754 10.6848C56.0672 11.3086 55.847 11.9519 55.7072 12.6026C58.1254 8.24978 63.5558 6.52108 68.0636 8.75217Z" fill="#385575"/>
<path d="M47.0334 28.6641C47.3471 30.365 48.4299 31.9009 50.0975 32.7268C52.213 33.7742 54.6645 33.3765 56.3386 31.9148L62.0837 27.3905C62.0837 27.3896 55.1106 32.6619 47.0334 28.6641Z" fill="#283D54"/>
<path d="M79.0467 32.7167L71.7839 29.1008L64.5211 25.4849L62.2501 27.2608L70.6429 31.3986L79.0041 35.6012L79.0467 32.7167Z" fill="#283D54"/>
<path d="M96.679 31.6961C96.8641 31.7415 98.2522 30.7219 98.2522 30.7219V28.59L96.1237 27.5704L95.3834 29.4243L96.9807 31L96.679 31.6961Z" fill="#EACDB0"/>
<path d="M54.5719 8.29052L54.7958 10.3798L55.0346 9.86628L56.978 10.1444L57.7183 9.03206L55.96 7.4563L54.5719 8.29052Z" fill="#EACDB0"/>
</svg>
