<svg width="139" height="104" viewBox="0 0 139 104" fill="none" xmlns="http://www.w3.org/2000/svg">
<path d="M139 0H0V104H139V0Z" fill="white"/>
<path opacity="0.12" d="M126.57 86.8233C117.769 79.1827 86.964 83.7672 86.964 83.7672C84.7661 84.2353 82.8708 84.6979 81.2476 85.1548C81.2476 85.1548 72.332 87.3961 68.0407 86.4414C64.6074 85.6767 55.1855 84.6682 50.2049 86.6453C48.5446 86.0234 46.2449 85.3829 43.179 84.7303C43.179 84.7303 19.6008 81.221 12.8636 87.0698C6.12742 92.9187 27.516 94.0875 33.6628 94.5269C36.6029 94.7364 44.8781 93.7761 49.8569 92.1086C53.7382 93.283 60.8149 93.0985 64.6287 92.3625C70.5681 91.2169 73.5508 92.4237 80.2518 94.0162C86.7835 95.8144 95.9268 96.8127 99.3935 96.5652C107.427 95.9924 135.372 94.4639 126.57 86.8233Z" fill="#606060"/>
<path d="M53.2567 76.2065V86.9438H51.639L50.6275 80.461L49.7169 75.4974L53.2567 76.2065Z" fill="#CAB5A1"/>
<path d="M49.7169 75.0923L49.1107 79.752L48.301 87.247L46.6833 87.146V81.3722L45.8745 75.4974L49.7169 75.0923Z" fill="#CAB5A1"/>
<path d="M46.9082 59.5988C46.9082 59.5988 48.4991 58.8786 49.8354 61.2552C51.1717 63.6318 54.9345 70.6142 56.033 74.5156C57.1315 78.4161 53.9332 76.5159 51.0209 77.783C48.1085 79.0501 45.6219 79.7379 45.1721 77.9721C44.7214 76.2054 39.8167 61.4647 46.9082 59.5988Z" fill="#B26650"/>
<path d="M46.3825 54.3943C44.6159 52.0872 41.661 54.1329 41.7905 56.6587C41.8636 58.0954 43.1416 60.3293 44.7935 59.9771C44.9296 60.1921 45.172 60.6 45.4201 60.6639C45.6884 60.7334 46.1974 60.2811 46.4001 60.1115C46.4565 60.0642 46.5139 60.0123 46.5371 59.9428C46.5657 59.8556 46.4973 59.6944 46.4112 59.521C46.5741 59.4246 46.7305 59.3041 46.8776 59.1568C47.494 58.5404 47.6837 57.5838 47.5282 56.7236C47.3718 55.8634 46.9128 55.0876 46.3825 54.3943Z" fill="#EACDB0"/>
<path d="M44.3123 54.0188C44.3123 54.0188 42.1218 54.904 42.2533 55.8504C42.4513 57.2742 42.4892 58.2428 42.7021 59.0761L40.9623 58.3475L39.6482 55.8273C39.6482 55.8273 39.5343 53.6221 40.6162 53.0854C41.698 52.5488 44.0097 51.8397 44.0097 51.8397L45.8856 52.1576L47.196 51.8786L47.2913 55.9199C47.2913 55.9209 46.3131 53.1605 44.3123 54.0188Z" fill="#5C3C30"/>
<path d="M53.2568 86.9438L54.1665 87.855L53.7621 88.463L51.9417 87.855V86.9438H53.2568Z" fill="#8C9498"/>
<path d="M48.0318 87.2302L47.6949 88.564L46.5816 88.9691L45.9755 88.665L46.9176 87.1606L48.0318 87.2302Z" fill="#8C9498"/>
<path d="M25.7752 85.8456C27.9453 90.5923 33.472 92.854 38.3731 90.9084C41.6269 89.6163 43.8128 86.7827 44.4264 83.5765L54.2785 79.664C56.9188 81.578 60.4493 82.1416 63.7031 80.8495C68.6042 78.903 71.0816 73.462 69.4149 68.516L69.4316 68.5141L63.0026 52.2718L62.9832 52.2755C61.6959 49.6347 58.5744 48.3917 55.8009 49.4929C53.6076 50.3642 52.2583 52.4525 52.2204 54.6771L51.7077 62.2055L34.3539 69.0971L28.83 63.9657C27.2809 62.3714 24.8692 61.7763 22.6759 62.6467C19.9033 63.7479 18.4791 66.7956 19.349 69.6023L19.3323 69.6134L25.7613 85.8558L25.7752 85.8456Z" fill="#2E4661"/>
<path d="M25.7752 85.8241C25.7752 85.8241 18.79 66.6461 27.739 63.0914C26.2684 62.1858 24.4046 61.9606 22.6759 62.6474C19.9033 63.7486 18.4791 66.7963 19.349 69.603L19.3323 69.6141L25.7604 85.8519L25.7752 85.8241Z" fill="#283D54"/>
<path d="M54.6043 73.0715L57.053 72.0992C57.3343 71.9871 57.6536 72.1252 57.7656 72.4079L58.7363 74.8605C58.8483 75.1423 59.1667 75.2804 59.4489 75.1692L61.8976 74.1968C62.179 74.0847 62.3168 73.7658 62.2058 73.4831L61.235 71.0305C61.123 70.7487 61.2609 70.4289 61.5432 70.3168L63.941 69.3648C64.2223 69.2527 64.3602 68.9338 64.2491 68.6511L63.2784 66.1985C63.1664 65.9167 62.848 65.7786 62.5658 65.8898L60.168 66.8417C59.8867 66.9539 59.5674 66.8158 59.4554 66.5331L58.505 64.1314C58.393 63.8497 58.0747 63.7116 57.7924 63.8228L55.3437 64.7951C55.0624 64.9073 54.9245 65.2261 55.0355 65.5088L55.986 67.9105C56.0979 68.1923 55.96 68.512 55.6778 68.6242L53.2291 69.5965C52.9478 69.7087 52.8099 70.0276 52.9209 70.3103L53.8917 72.7629C54.0028 73.0456 54.322 73.1837 54.6043 73.0715Z" fill="#283D54"/>
<path d="M34.4632 84.9518C35.4737 84.9518 36.2928 84.1313 36.2928 83.1192C36.2928 82.1072 35.4737 81.2867 34.4632 81.2867C33.4528 81.2867 32.6337 82.1072 32.6337 83.1192C32.6337 84.1313 33.4528 84.9518 34.4632 84.9518Z" fill="#283D54"/>
<path d="M36.4861 80.1199C37.4966 80.1199 38.3157 79.2994 38.3157 78.2873C38.3157 77.2753 37.4966 76.4548 36.4861 76.4548C35.4757 76.4548 34.6566 77.2753 34.6566 78.2873C34.6566 79.2994 35.4757 80.1199 36.4861 80.1199Z" fill="#283D54"/>
<path d="M29.8294 82.7635C30.8398 82.7635 31.659 81.943 31.659 80.931C31.659 79.9189 30.8398 79.0984 29.8294 79.0984C28.8189 79.0984 27.9998 79.9189 27.9998 80.931C27.9998 81.943 28.8189 82.7635 29.8294 82.7635Z" fill="#283D54"/>
<path d="M31.746 78.089C32.7564 78.089 33.5755 77.2685 33.5755 76.2565C33.5755 75.2444 32.7564 74.424 31.746 74.424C30.7355 74.424 29.9164 75.2444 29.9164 76.2565C29.9164 77.2685 30.7355 78.089 31.746 78.089Z" fill="#283D54"/>
<path d="M55.3151 73.3791L57.7638 72.4068C58.0451 72.2946 58.3644 72.4327 58.4764 72.7154L59.4472 75.1681C59.5592 75.4498 59.8775 75.5879 60.1598 75.4767L62.6085 74.5044C62.8898 74.3922 63.0277 74.0734 62.9166 73.7907L61.9458 71.338C61.8339 71.0563 61.9718 70.7365 62.254 70.6243L64.6518 69.6724C64.9331 69.5602 65.071 69.2414 64.96 68.9586L63.9892 66.506C63.8772 66.2242 63.5589 66.0861 63.2766 66.1974L60.8788 67.1493C60.5975 67.2615 60.2782 67.1233 60.1662 66.8406L59.2158 64.439C59.1038 64.1572 58.7855 64.0191 58.5032 64.1303L56.0545 65.1027C55.7732 65.2148 55.6353 65.5337 55.7464 65.8164L56.6968 68.218C56.8088 68.4998 56.6709 68.8196 56.3886 68.9318L53.9399 69.9041C53.6586 70.0163 53.5207 70.3351 53.6318 70.6178L54.6025 73.0704C54.7145 73.3532 55.0338 73.4913 55.3151 73.3791Z" fill="#FFDB8C"/>
<path d="M35.1741 85.2594C36.1845 85.2594 37.0037 84.4389 37.0037 83.4269C37.0037 82.4148 36.1845 81.5944 35.1741 81.5944C34.1636 81.5944 33.3445 82.4148 33.3445 83.4269C33.3445 84.4389 34.1636 85.2594 35.1741 85.2594Z" fill="#FFDB8C"/>
<path d="M37.1978 80.4274C38.2083 80.4274 39.0274 79.6069 39.0274 78.5948C39.0274 77.5828 38.2083 76.7623 37.1978 76.7623C36.1874 76.7623 35.3682 77.5828 35.3682 78.5948C35.3682 79.6069 36.1874 80.4274 37.1978 80.4274Z" fill="#FFDB8C"/>
<path d="M30.5402 83.0719C31.5507 83.0719 32.3698 82.2514 32.3698 81.2394C32.3698 80.2273 31.5507 79.4069 30.5402 79.4069C29.5298 79.4069 28.7106 80.2273 28.7106 81.2394C28.7106 82.2514 29.5298 83.0719 30.5402 83.0719Z" fill="#FFDB8C"/>
<path d="M32.4577 78.3965C33.4681 78.3965 34.2873 77.576 34.2873 76.564C34.2873 75.5519 33.4681 74.7314 32.4577 74.7314C31.4472 74.7314 30.6281 75.5519 30.6281 76.564C30.6281 77.576 31.4472 78.3965 32.4577 78.3965Z" fill="#FFDB8C"/>
<path d="M61.5282 78.9157C60.0957 79.4848 58.6066 79.6758 57.1704 79.5358C59.0703 80.3255 61.2673 80.4052 63.33 79.5859C67.5371 77.9146 69.5952 73.1447 67.9276 68.9309C67.6712 68.284 67.3418 67.6889 66.954 67.1494C68.5606 71.8637 66.2017 77.0591 61.5282 78.9157Z" fill="#385575"/>
<path d="M60.8648 49.9366C59.3943 49.0301 57.5295 48.8058 55.8008 49.4926C53.6075 50.3639 52.2582 52.4522 52.2203 54.6768L51.7233 61.98C51.7233 61.98 52.4896 53.2624 60.8648 49.9366Z" fill="#283D54"/>
<path d="M36.4095 71.021L43.9555 68.0447L51.5024 65.0684L51.7079 62.1903L43.0171 65.657L34.2996 69.0569L36.4095 71.021Z" fill="#283D54"/>
<path d="M44.6826 60.9586C44.6826 60.9586 36.6471 66.3671 44.6984 71.6505C46.6418 72.7628 46.6418 72.7628 46.6418 72.7628L47.5672 71.8359L43.4953 66.2744L45.0686 63.2777L44.6826 60.9586Z" fill="#B26650"/>
<path d="M47.5793 59.4987C47.5793 59.4987 52.4563 58.151 52.2786 65.8277C52.2869 68.7772 52.2869 70.3529 52.2869 70.3529H50.8988L49.3256 63.3389L47.5793 59.4987Z" fill="#B26650"/>
<path d="M50.9757 70.353L50.8064 71.558L51.2691 72.1141H51.8243L51.9012 70.353H50.9757Z" fill="#EACDB0"/>
<path d="M47.4213 71.9823L48.3078 72.392L48.4004 73.4116L47.9377 73.5043L46.9891 72.4152L47.4213 71.9823Z" fill="#EACDB0"/>
<path d="M98.0035 31.1444L86.5281 32.9982L76.4409 29.5686L74.6826 31.8859L86.0117 37.4919L94.9496 36.9839L98.0035 31.1444Z" fill="#A1BDCC"/>
<path d="M104.581 34.0568L110.126 43.5651L116.963 49.8876L115.124 52.3708L107.076 47.0568L100.92 38.8193L104.581 34.0568Z" fill="#A1BDCC"/>
<path d="M89.7926 52.3014L89.4437 67.2247L92.0238 86.5009L94.1829 86.5268L95.757 68.7875L98.922 51.0658L89.7926 52.3014Z" fill="#8C9498"/>
<path d="M94.1737 86.2692L94.1598 87.439L91.8111 88.58L90.6571 87.3973L91.8389 86.2414L94.1737 86.2692Z" fill="#3A3029"/>
<path d="M101.521 86.8326L99.6643 88.413L100.128 89.3427L103.563 88.5993V86.8326H101.521Z" fill="#3A3029"/>
<path d="M97.2802 58.1724L98.8229 72.636L100.859 87.0541L103.763 86.916L103.657 71.9593L105.406 58.0861L101.3 56.1711L97.2802 58.1724Z" fill="#8C9498"/>
<path d="M97.8763 31.1686C97.8763 31.1686 93.9969 33.0243 90.6765 40.3386C87.2949 47.7864 86.2029 58.1113 86.2029 58.1113C86.2029 58.1113 105.929 64.3596 105.98 60.931C105.98 60.931 110.441 33.8011 101.57 31.8796C101.165 31.7915 98.1197 31.0296 97.8763 31.1686Z" fill="#A1BDCC"/>
<path d="M98.9221 31.2494C96.8797 34.7587 94.9529 38.9131 92.8716 42.3983C91.638 44.4644 91.3086 46.7558 90.8505 49.0749C90.3952 51.3811 89.9399 53.6873 89.4836 55.9934C89.2912 56.9676 89.0987 57.9418 88.9062 58.9169L97.2267 60.9849C97.1323 58.1012 96.9676 55.2185 96.9269 52.334C96.8889 49.6728 96.6826 46.6622 97.5266 44.1029C97.9375 42.8572 98.3669 41.6151 98.7842 40.3702C99.5496 38.0863 100.08 35.7143 100.866 33.4369C100.92 33.2775 100.933 31.8797 100.904 31.7082L98.9221 31.2494Z" fill="white"/>
<path d="M98.9435 32.2568C99.6126 32.1873 100.283 32.1168 100.952 32.0464C100.955 31.5088 100.917 30.9711 100.834 30.44C101.391 30.2407 102.034 29.9423 102.129 29.3574C102.158 29.1729 102.126 28.9848 102.093 28.8012C101.958 28.0412 101.823 27.282 101.687 26.522C101.641 26.2596 101.591 25.989 101.447 25.7637C101.194 25.3698 100.707 25.1992 100.246 25.1214C99.0684 24.923 97.7895 25.1844 96.8816 25.9612C96.6401 26.1679 96.4217 26.4154 96.3162 26.7157C96.1533 27.1782 96.2801 27.6871 96.4069 28.1607C96.5235 28.5982 96.641 29.0348 96.7576 29.4723C96.8927 29.9756 97.0862 30.5466 97.5711 30.7329C97.8293 30.8321 98.1319 30.8006 98.366 30.948C98.7797 31.2084 98.7279 31.8202 98.9435 32.2568Z" fill="#EACDB0"/>
<path d="M95.1957 27.2615L96.8282 29.5797L96.2452 27.3199L95.1957 27.2615Z" fill="#3A3029"/>
<path d="M92.3509 24.6987C92.3342 24.1777 92.4045 23.6494 92.5054 23.173C92.6785 22.3545 93.6391 21.9809 94.471 21.9179C96.2691 21.7807 98.0006 20.953 99.7617 21.5722C100.769 21.9263 102.118 22.0041 103.03 22.5056C103.412 22.7151 103.716 23.045 103.954 23.4084C104.779 24.6699 104.792 26.4162 103.987 27.6907C103.807 27.9772 103.59 28.2386 103.363 28.4879C102.892 29.0051 102.327 29.6447 101.676 29.8384C101.658 29.2545 102.18 27.409 101.729 26.9325C101.014 26.1762 99.4082 26.4496 98.5272 26.6415C97.5666 26.851 96.7124 27.5378 95.7592 27.688C95.0735 27.7964 94.1953 27.4637 93.6104 27.1114C92.6914 26.5599 92.3805 25.6404 92.3509 24.6987Z" fill="#3A3029"/>
<path d="M116.158 51.6886C118.222 46.8946 116.194 41.27 111.468 38.9305C108.33 37.377 104.765 37.6514 101.979 39.343L92.4775 34.6398C92.1268 31.3947 90.1788 28.3924 87.0397 26.8389C82.3135 24.4993 76.6202 26.304 74.0725 30.8571L74.0596 30.8459L66.3313 46.5099L66.347 46.5219C65.2522 49.248 66.4238 52.4023 69.0983 53.7259C71.2139 54.7733 73.6653 54.3757 75.3394 52.914L81.2622 48.2497L97.9986 56.5336L97.8978 64.0787C97.7543 66.2986 98.9296 68.4908 101.044 69.5373C103.719 70.8609 106.931 69.8774 108.428 67.3497L108.448 67.3544L116.176 51.6904L116.158 51.6886Z" fill="#2E4661"/>
<path d="M116.143 51.7025C116.143 51.7025 106.612 69.7477 97.9802 65.4764C98.2939 67.1773 99.3766 68.7132 101.043 69.5382C103.718 70.8618 106.93 69.8784 108.427 67.3507L108.447 67.3553L116.173 51.6951L116.143 51.7025Z" fill="#283D54"/>
<path d="M87.3727 38.8166L85.0119 37.6478C84.7399 37.5134 84.6288 37.1834 84.763 36.9118L85.93 34.5463C86.0642 34.2738 85.9531 33.9447 85.681 33.8103L83.3193 32.6415C83.0473 32.5071 82.7187 32.6183 82.5845 32.8908L81.4176 35.2563C81.2834 35.5288 80.9539 35.6401 80.6828 35.5057L78.3711 34.3609C78.099 34.2265 77.7705 34.3378 77.6363 34.6103L76.4684 36.9748C76.3342 37.2473 76.4452 37.5764 76.7173 37.7108L79.029 38.8555C79.3011 38.9899 79.4122 39.3199 79.278 39.5915L78.1351 41.907C78.0009 42.1795 78.1119 42.5085 78.384 42.6429L80.7457 43.8118C81.0178 43.9462 81.3463 43.8349 81.4805 43.5624L82.6234 41.247C82.7576 40.9745 83.0871 40.8632 83.3582 40.9976L85.7199 42.1665C85.992 42.3009 86.3205 42.1897 86.4547 41.9172L87.6217 39.5517C87.7558 39.2801 87.6448 38.951 87.3727 38.8166Z" fill="#283D54"/>
<path d="M108.317 48.8891C109.327 48.8891 110.146 48.0687 110.146 47.0566C110.146 46.0446 109.327 45.2241 108.317 45.2241C107.306 45.2241 106.487 46.0446 106.487 47.0566C106.487 48.0687 107.306 48.8891 108.317 48.8891Z" fill="#283D54"/>
<path d="M103.38 50.6223C104.391 50.6223 105.21 49.8019 105.21 48.7898C105.21 47.7777 104.391 46.9573 103.38 46.9573C102.37 46.9573 101.551 47.7777 101.551 48.7898C101.551 49.8019 102.37 50.6223 103.38 50.6223Z" fill="#283D54"/>
<path d="M109.8 53.8C110.81 53.8 111.629 52.9796 111.629 51.9675C111.629 50.9555 110.81 50.135 109.8 50.135C108.789 50.135 107.97 50.9555 107.97 51.9675C107.97 52.9796 108.789 53.8 109.8 53.8Z" fill="#283D54"/>
<path d="M105.051 55.5073C106.061 55.5073 106.88 54.6869 106.88 53.6748C106.88 52.6627 106.061 51.8423 105.051 51.8423C104.04 51.8423 103.221 52.6627 103.221 53.6748C103.221 54.6869 104.04 55.5073 105.051 55.5073Z" fill="#283D54"/>
<path d="M87.1248 38.0805L84.7631 36.9117C84.4911 36.7773 84.38 36.4473 84.5142 36.1757L85.6812 33.8102C85.8153 33.5377 85.7043 33.2087 85.4322 33.0742L83.0714 31.9054C82.7994 31.771 82.4708 31.8822 82.3367 32.1547L81.1697 34.5202C81.0355 34.7928 80.706 34.904 80.4349 34.7696L78.1232 33.6248C77.8511 33.4904 77.5226 33.6017 77.3884 33.8742L76.2214 36.2397C76.0872 36.5122 76.1983 36.8412 76.4703 36.9756L78.7821 38.1204C79.0541 38.2548 79.1652 38.5848 79.031 38.8564L77.8881 41.1718C77.7539 41.4443 77.865 41.7734 78.137 41.9078L80.4987 43.0766C80.7708 43.211 81.0993 43.0998 81.2335 42.8273L82.3764 40.5118C82.5106 40.2393 82.8401 40.1281 83.1112 40.2625L85.4729 41.4313C85.745 41.5657 86.0735 41.4545 86.2077 41.182L87.3747 38.8165C87.508 38.5449 87.396 38.2159 87.1248 38.0805Z" fill="#FFDB8C"/>
<path d="M108.067 48.1544C109.078 48.1544 109.897 47.334 109.897 46.3219C109.897 45.3098 109.078 44.4894 108.067 44.4894C107.057 44.4894 106.238 45.3098 106.238 46.3219C106.238 47.334 107.057 48.1544 108.067 48.1544Z" fill="#FFDB8C"/>
<path d="M103.131 49.8876C104.142 49.8876 104.961 49.0671 104.961 48.0551C104.961 47.043 104.142 46.2225 103.131 46.2225C102.121 46.2225 101.302 47.043 101.302 48.0551C101.302 49.0671 102.121 49.8876 103.131 49.8876Z" fill="#FFDB8C"/>
<path d="M109.552 53.0653C110.562 53.0653 111.381 52.2449 111.381 51.2328C111.381 50.2207 110.562 49.4003 109.552 49.4003C108.541 49.4003 107.722 50.2207 107.722 51.2328C107.722 52.2449 108.541 53.0653 109.552 53.0653Z" fill="#FFDB8C"/>
<path d="M104.803 54.7726C105.813 54.7726 106.632 53.9521 106.632 52.9401C106.632 51.928 105.813 51.1075 104.803 51.1075C103.792 51.1075 102.973 51.928 102.973 52.9401C102.973 53.9521 103.792 54.7726 104.803 54.7726Z" fill="#FFDB8C"/>
<path d="M87.0636 29.7522C88.4453 30.4362 89.5845 31.4151 90.4433 32.5755C89.7557 30.6337 88.3416 28.9476 86.3519 27.9623C82.2949 25.9537 77.3799 27.6203 75.3754 31.6848C75.0672 32.3086 74.847 32.9519 74.7072 33.6026C77.1254 29.2498 82.5558 27.5211 87.0636 29.7522Z" fill="#385575"/>
<path d="M66.0334 49.6641C66.3471 51.365 67.4299 52.9009 69.0975 53.7268C71.213 54.7742 73.6645 54.3765 75.3386 52.9148L81.0837 48.3905C81.0837 48.3896 74.1106 53.6619 66.0334 49.6641Z" fill="#283D54"/>
<path d="M98.0467 53.7167L90.7839 50.1008L83.5211 46.4849L81.2501 48.2608L89.6429 52.3986L98.0041 56.6012L98.0467 53.7167Z" fill="#283D54"/>
<path d="M115.679 52.6961C115.864 52.7415 117.252 51.7219 117.252 51.7219V49.59L115.124 48.5704L114.383 50.4243L115.981 52L115.679 52.6961Z" fill="#EACDB0"/>
<path d="M73.5719 29.2905L73.7958 31.3798L74.0346 30.8663L75.978 31.1444L76.7183 30.0321L74.96 28.4563L73.5719 29.2905Z" fill="#EACDB0"/>
</svg>
